Patient4_TMGait_0pt5_01_left_05_EMG.mot
version=1
nRows=16
nColumns=33
inDegrees=no
endheader
time	1LAddLong	2LGlutMax	3LGlutMed	4LIliopsoas	5LSemiMemb	6LBicFemLong	7LRecFem	8LVastMed	9LVastLat	10LGasMed	11LTibAnt	12lTibPost	13LPeroneusLong	14LSol	15LExtDigLong	16LFlexDigLong	17RAddLong	18RGlutMax	19RGlutMed	20RIliopsoas	21RSemiMemb	22RBicFemLong	23RRecFem	24RVastMed	25RVastLat	26RGasMed	27RTibAnt	28RTibPost	29RPeroneusLong	30RSol	31RExtDigLong	32RFlexDigLong
8.073	-0.001373	0.019684	-0.059204	-0.024872	-0.042267	0.060883	-0.065613	0.008545	0.039063	-0.033264	-0.005035	0.009918	0.018463	-0.12146	0.002594	-0.005341	-0.002441	-0.063477	0.16342	-0.065765	-0.019531	-0.005493	-0.31677	-0.24414	0.33966	0.003967	-0.38864	0.060272	0.20706	-0.12268	0.003204	-0.010529
8.074	-0.000916	0.00473	-0.074005	0.003357	-0.007477	0.04715	-0.044861	0.000458	0.038605	-0.029907	-0.001068	-0.000916	0.031128	-0.078735	-0.005798	0.012054	0.00473	-0.028839	0.079193	0.007324	-0.00824	0.010223	-0.49393	-0.13245	0.43274	0.016632	-0.49271	0.0177	0.30884	-0.25635	0.002594	-0.001831
8.075	0.00824	-0.001984	-0.080261	-0.000153	0.075531	0.000305	-0.062256	0.010071	0.03418	-0.029449	0.003662	-0.002136	0.029755	-0.13397	-0.005188	0.015564	0.014954	0.003204	-0.11063	0.1831	-0.010223	-0.021057	-0.16769	0.098419	0.44388	0.00885	-1.1429	0.023041	0.089722	-0.19379	0.000916	-0.005493
8.076	0.010376	0.01236	-0.067749	0.011597	0.033264	0.014648	-0.045471	0.006104	0.036011	-0.049744	0.006256	-0.005798	0.040588	-0.14175	0.003052	0.011292	0.012665	0.016479	-0.34347	0.2446	-0.005951	-0.005188	0.096283	0.14084	0.52917	-0.006561	-0.82428	-0.002899	-0.092773	0.052643	0.004272	-0.012054
8.077	0.010986	0.00885	-0.072327	0.005341	-0.036774	0.044098	-0.044861	0.003967	0.036621	-0.051575	-0.001068	0.003052	0.043945	-0.006256	0.002441	0.007935	0.003204	-0.013428	-0.1976	0.11643	0.003815	0.009613	-0.019531	0.20493	0.50064	-0.006866	-0.2214	-0.003967	0.034637	0.5748	-0.000305	-0.00946
8.078	0.016022	0.017548	-0.0383	0.005341	-0.028229	0.057526	-0.050201	0.001678	0.0354	-0.054626	0.00351	-0.010529	0.032806	0.014648	-0.00061	0.010986	-0.001373	0.050201	0.10086	0.063324	0.010376	0.010071	-0.38788	0.027161	0.44296	-0.020599	0.14862	0.000763	-0.121	0.39139	-0.001068	-0.015259
8.079	0.013428	0.002136	-0.062561	-0.00885	0.035553	0.086365	-0.0737	0.002594	0.037231	-0.037079	0.00946	-0.002136	0.028687	-0.011139	0.006866	0.006256	-0.006256	0.028534	0.41824	-0.001526	-0.001221	-0.006256	-0.17212	-0.023651	0.16571	-0.021515	0.40115	-0.009766	-0.29022	0.35217	0.000305	-0.023956
8.08	0.013428	0.016022	-0.059052	-0.007324	0.041199	0.059204	-0.066986	-0.001526	0.037079	-0.028687	0.005493	-0.015411	0.000458	-0.027008	0.002899	-0.63995	0.014038	0.071716	0.37491	0.014954	-0.012817	-0.012207	0.14801	0.035858	-0.16525	-0.014496	0.54138	-0.00885	-0.36957	0.39475	0.001831	-0.018005
8.081	0.009918	0.022278	-0.063324	-0.011139	0.014954	0.073395	-0.075073	0.006104	0.02594	-0.019531	0.013275	-0.016022	-0.007935	-0.048828	0.000916	-0.00473	0.026093	0.10986	0.20172	-0.010529	-0.037689	-0.041351	0.10315	-0.10574	-0.83359	-0.00824	0.59296	-0.005188	-0.36819	0.42297	0.000305	-0.008698
8.082	0.006256	-0.028687	-0.063782	0.002594	0.009003	0.098114	-0.06897	0.008545	0.015106	-0.034943	0.017853	0.007935	0.006256	-0.065155	0.003967	0.9169	0.017548	0.012207	-0.003967	-0.062408	-0.038147	-0.016022	0.021362	-0.073547	-0.90378	0.003052	0.34531	-0.004272	-0.25192	0.74066	-0.001221	-0.01236
8.083	-0.002289	-0.027313	-0.073395	-0.01358	0.000916	0.070496	-0.074921	0.015717	0.018311	-0.054932	0.005951	-0.007477	0.058136	-0.075073	-0.002594	-0.44952	0.005951	0.055847	0.085907	-0.08728	-0.036926	-0.032196	-0.16769	0.051575	-0.37674	-0.005951	0.45776	-0.011139	-0.22598	-0.050659	0.000305	-0.008392
8.084	-0.011292	-0.005341	-0.078125	-0.002594	-0.025024	0.0737	-0.10254	0.002289	0.016479	-0.046082	0.012665	0.007935	0.046082	-0.032349	-0.003052	-0.031281	0.002747	0.077667	0.17441	-0.096588	-0.041962	-0.049744	-0.22797	0.13397	0.069885	-0.010376	0.48553	-0.008392	-0.24307	-0.65201	0.001068	-0.019531
8.085	0.005188	0.01297	-0.099792	-0.007629	-0.017395	0.041656	-0.096436	0.006714	0.024872	-0.031281	0.010223	-0.007477	0.033417	-0.003662	0.003967	0.16022	0.005188	0.094299	0.43991	-0.022125	-0.021667	-0.096588	-0.032501	0.10193	0.14481	-0.010529	-0.15595	-0.000916	-0.1062	-0.87387	-0.000305	-0.02121
8.086	0.014954	-0.026398	-0.11643	0.007019	0.029297	0.019531	-0.093842	0.014343	0.02594	-0.027618	0.000763	0.011597	0.045624	0.002899	0.002594	0.34943	0.002594	0.080109	-0.00824	0.14343	-0.013428	-0.14221	-0.003662	0.062866	0.075684	0.018921	0.31586	-0.003662	0.13992	-1.1832	-0.00061	-0.000763
8.087	0.020142	-0.00351	-0.12344	-0.006714	0.030365	0.016937	-0.086212	0.007782	0.023041	-0.021667	0.015717	-0.012817	0.036163	-0.013885	0.004272	0.069733	-0.001221	0.06073	-0.39673	0.14801	-0.018463	-0.18875	-0.031891	0.10971	0.043793	0.019226	0.28397	-0.000763	0.070038	-0.63629	0.002441	-0.001678
8.088	0.015717	0.006866	-0.11993	-0.007019	0.02182	0.000916	-0.088654	0.008087	0.020447	-0.024567	0.02243	-0.011749	0.032806	0.009613	0.003204	0.010529	0.013275	0.09201	-0.025787	0.004883	-0.028381	-0.081329	0.038452	0.033569	0.003662	-0.000305	0.19028	-0.005646	-0.13702	-0.25726	0.002899	-0.00824
